
<?xml version="1.0" encoding="utf-8"?>
<svg id="Layer_1" xmlns="http://www.w3.org/2000/svg" viewBox="0 0 498 184">
<style>.st0{stroke:#000;stroke-width:4;stroke-miterlimit:10}</style>
<path class="st0" d="M38.4 58.9c.3-.9 1-1.2 2-1 1.1.2 1.4.9 1.1 1.9-.7 2.1-1.8 5-3.3 8.7-1.4 3.7-3 7.8-4.8 12.3-2.4 5.9-5 12.3-7.7 19.2-2.7 7-5.2 13.9-7.5 20.7-2.3 6.8-4.2 13.4-5.7 19.6-1.5 6.2-2.3 11.5-2.3 15.9 0 3.2.5 5.6 1.5 7.4 1 1.8 2.6 2.7 4.8 2.7 2.9 0 6.5-2.2 10.9-6.5 4.4-4.4 9.3-10.1 14.6-17.2 5.3-7.1 11-15.3 17.1-24.4s12.3-18.6 18.6-28.4c6.6-10 13.2-20 19.7-29.8s12.7-18.6 18.6-26.4c5.9-7.8 11.3-14.1 16.4-18.8 5.1-4.7 9.5-7.1 13.1-7.1 3.9 0 6.7 2.1 8.3 6.4 1.6 4.3 2.5 10 2.5 17.2 0 9.3-.9 20.2-2.8 32.6-1.9 12.5-3.9 25-6 37.6-2 10.7-3.6 20.7-5.1 30.3-1.4 9.5-2.1 17.1-2.1 22.8 0 6.2.8 9.2 2.5 9.2.7 0 1.8-.8 3.3-2.2 1.4-1.5 3.1-3.6 5.1-6.2 1.9-2.6 4.1-5.6 6.3-9 2.2-3.4 4.6-6.9 7-10.7 3.3-5.1 6.8-10.3 10.4-15.6s7.2-10.2 10.7-14.5 6.9-7.9 10-10.6c3.2-2.7 6.1-4.1 8.8-4.1 3.7 0 6.2 2.1 7.4 6.3 1.2 4.2 1.8 9.4 1.8 15.5 0 4.7-.2 9.3-.5 14s-.5 9.7-.5 15.1c0 5.3.4 9.6 1.1 13.2.7 3.5 2.4 5.3 5 5.3 2.8 0 6.2-.6 10-1.9 3.8-1.3 7.9-2.9 12.3-5 4.3-2 8.9-4.3 13.5-6.9 4.6-2.5 9.4-5.2 14.2-7.9.7-.3 1.4-.1 1.8.7.5.8.3 1.4-.4 2-4.8 2.7-9.6 5.4-14.5 8s-9.5 5-14 7.1c-4.4 2.1-8.6 3.8-12.5 5.1s-7.4 1.9-10.4 1.9c-2 0-3.5-.6-4.7-1.7-1.2-1.1-2.1-2.7-2.8-4.6-.7-2-1.1-4.2-1.4-6.9-.2-2.6-.3-5.4-.3-8.4 0-4.6.1-9.3.5-14 .3-4.6.5-9.7.5-15.1 0-5.3-.4-9.7-1.1-13.3-.8-3.6-2.4-5.4-5-5.4-2.2 0-4.8 1.3-7.8 3.9-2.9 2.6-6 6-9.2 10.2s-6.6 8.9-10 14.1c-3.5 5.2-6.8 10.2-10.1 15.2-2.6 3.9-5 7.6-7.3 11.1s-4.5 6.6-6.6 9.3-4.1 4.9-5.9 6.5-3.3 2.5-4.5 2.5c-2.1 0-3.6-1.1-4.4-3.3s-1.2-5.2-1.2-9.1c0-2.8.2-6.3.6-10.4.4-4.1.9-8.4 1.6-13.1.7-4.6 1.5-9.5 2.4-14.6s1.8-10.3 2.7-15.5c1-6.2 2.1-12.4 3.2-18.8 1-6.4 2-12.6 2.8-18.7s1.5-11.9 2-17.4.8-10.5.8-14.9c0-6.3-.6-11.3-1.7-15s-3.1-5.5-6-5.5c-3.2 0-7.1 2.4-11.9 7.2-4.8 4.8-10.1 11-15.9 18.7-5.8 7.6-11.9 16.3-18.2 25.9-6.4 9.6-12.7 19.3-19 29-6.3 9.8-12.6 19.3-18.8 28.6s-12.2 17.6-17.8 25-10.8 13.2-15.4 17.7c-4.6 4.4-8.6 6.6-11.9 6.6-3.4 0-5.9-1.2-7.3-3.6-1.4-2.4-2.1-5.6-2.1-9.7 0-4.5.8-9.9 2.4-16.2 1.6-6.3 3.5-12.9 5.9-19.9 2.3-7 4.9-14 7.7-21 2.8-7.1 5.4-13.6 7.8-19.6 3.2-9.2 5.8-16 7.1-20.3z"/><path class="st0" d="M285.3 139.7c-.3.8-.9 1.1-1.8 1s-1.3-.6-1.3-1.5c.1-.6.1-1.3-.2-2-.3-.7-1-1.1-2-1.1-1.2 0-2.5.3-3.8 1s-2.6 1.5-3.8 2.6c-1.2 1.1-2.2 2.1-3 3.3-.8 1.1-1.2 2.2-1.2 3.3 0 .6.3.9.9.8.6-.1 1.4-.4 2.4-.9s2.1-1.2 3.3-2c1.2-.8 2.4-1.8 3.6-2.8.9-.7 1.6-1 2.3-.9.6.2 1.2.5 1.8 1.1 2.1 2.1 4.4 3.5 7 4.3 2.5.8 4.9 1.1 7 1.1 3.7 0 7.8-.8 12.3-2.5 4.4-1.6 8.5-3.6 12.3-5.9 1.2-.4 2-.3 2.4.6.4.8.2 1.5-.6 2.1-3.9 2.4-8.3 4.5-13.1 6.2-4.8 1.7-9.2 2.6-13.3 2.6-3 0-5.9-.5-8.7-1.5-2.8-1-5.4-2.5-7.8-4.6-3.8 3.6-7.2 5.6-10.2 6.1-3.1.5-4.6-.8-4.6-3.8 0-1.3.5-2.8 1.5-4.4 1-1.6 2.2-3 3.7-4.3s3.2-2.4 5-3.3c1.8-.9 3.4-1.3 5-1.3 2.4 0 3.9.8 4.6 2.5.2 1.5.5 3 .3 4.2z"/><path class="st0" d="M385.9 138.5c.9-.4 1.6-.3 2.1.6.5.8.4 1.5-.3 2.1-3.2 2.1-6.9 4.1-11.1 5.9-4.3 1.8-8.7 3.4-13.4 4.7-4.7 1.4-9.3 2.4-14 3.2s-9 1.1-13.1 1.1c-2.6 0-4.8-.8-6.6-2.2-1.9-1.5-2.8-3.3-2.8-5.4 0-1 .2-2.3.6-3.7s.8-2.7 1.2-3.9c-3.3.4-6 .1-8.1-1.1-2.1-1.2-3.2-3.2-3.2-6.1 0-.7.5-1.2 1.6-1.3 1-.1 1.6.3 1.6 1.3 0 1.8.9 3.1 2.7 3.8 1.8.8 4.2.7 7.2-.2.9-.3 1.6 0 2 .8s.4 1.6-.2 2.4c-.8 1.1-1.3 2.4-1.7 3.9-.4 1.6-.6 3-.6 4.2s.6 2.3 1.9 3.2 2.7 1.3 4.4 1.3c3.9 0 8.1-.4 12.6-1.1 4.5-.7 9-1.8 13.5-3 4.5-1.3 8.8-2.8 12.8-4.5 4.2-1.9 7.8-3.9 10.9-6z"/><path class="st0" d="M385.2 139.4c.3-.7.9-1 1.9-.7s1.4.8 1.2 1.6c-.9 3-.6 5.4.9 7.2s3.7 2.7 6.5 2.7 6-.3 9.5-.9c3.4-.6 6.9-1.4 10.5-2.5 3.5-1 7-2.3 10.5-3.7 3.4-1.4 6.6-3 9.5-4.6.9-.6 1.6-.5 2.3.3.6.8.5 1.6-.5 2.4-3 1.8-6.3 3.5-9.9 5-3.6 1.5-7.2 2.8-10.9 3.8-3.7 1.1-7.3 1.9-10.9 2.5-3.6.6-6.9.9-9.9.9-4.2 0-7.4-1.2-9.5-3.7s-2.5-5.9-1.2-10.3zm10.6-18.6c-.9.3-1.5-.1-1.8-1.1-.3-1 0-1.7.9-2l6.5-1.6c1.2-.3 1.9.1 2.1 1.1.2 1.1-.2 1.7-1.2 2l-6.5 1.6z"/><path class="st0" d="M435.9 141.2c-.6-.3-.7-.9-.3-1.8.4-.9.9-1.2 1.7-.9 2.5 1.2 5.3 3 8.3 5.5s5.4 5.1 7.2 7.8c4.8-2.5 10.2-4.9 16.3-7.1 6.1-2.2 11.7-4.2 17-6.2 1-.3 1.7 0 2 .8s.1 1.5-.7 1.9c-5.1 2-10.7 4.1-16.9 6.5s-11.6 4.6-16.2 6.8c.5 1.2.7 2.3.7 3.4 0 2.5-.9 4.8-2.7 6.6-1.8 1.9-4.3 2.8-7.4 2.8-1.2 0-2.3-.4-3.2-1.3-.9-.9-1.4-2-1.4-3.2 0-1.7.9-3.3 2.6-5 1.7-1.7 4.1-3.3 7.1-5-1.5-2.2-3.6-4.5-6.4-6.6-2.7-2.1-5.3-3.8-7.7-5zm15.9 16.7c0-.9-.1-1.6-.2-2-2.6 1.4-4.5 2.6-6 3.7-1.4 1.1-2.1 2.2-2.1 3.3 0 .9.5 1.3 1.4 1.3 2.3 0 4-.6 5.2-1.9 1.1-1.3 1.7-2.8 1.7-4.4z"/></svg>